# xmcd CD database file
#
# Track frame offsets:
#	150
#	14355
#	30235
#	44815
#	57982
#	73115
#	92502
#	106287
#	122482
#	136170
#	154935
#
# Disc length: 2279 seconds
#
# Revision: 2
# Processed by: cddbd v1.5.2PL0 Copyright (c) Steve Scherf et al.
# Submitted via: CDex 1.51
#
DISCID=8d08e50b
DTITLE=Aaron Tippin - What This Country Needs
DYEAR=1998
DGENRE=Country
TTITLE0=What This Country Needs
TTITLE1=For You I Will
TTITLE2=Her
TTITLE3=I Didn't Come This Far (Just To Walk Away)
TTITLE4=I'm Leaving
TTITLE5=Nothing Compares To Loving You
TTITLE6=Don't Stop (We're Just Gettin' Started)
TTITLE7=Somewhere Under The Rainbow
TTITLE8=Back When I Knew Everything
TTITLE9=Sweetwater
TTITLE10=You're The Only Reason For Me
EXTD=YEAR: 1998
EXTT0=
EXTT1=
EXTT2=
EXTT3=
EXTT4=
EXTT5=
EXTT6=
EXTT7=
EXTT8=
EXTT9=
EXTT10=
PLAYORDER=
